# xmcd
#
# Track frame offsets:
#	150
#	11732
#	29682
#	46055
#	63155
#	78445
#	95967
#	108705
#	127800
#	147860
#	162107
#	176202
#
# Disc length: 2619 seconds
#
# Revision: 1
# Processed by: cddbd v1.5.1PL0 Copyright (c) Steve Scherf et al.
# Submitted via: audiograbber 1.83.01
#
DISCID=a10a390c
DTITLE=Steve Earle - The Best Of Steve Earle: 20th Century Masters The Millenni
DTITLE=um Collection
DYEAR=2003
DGENRE=Country
TTITLE0=Guitar Town
TTITLE1=Good Ol' Boy (Gettin' Tough)
TTITLE2=Hillbilly Highway
TTITLE3=Someday
TTITLE4=Goodbye's All We Got Left
TTITLE5=I Ain't Ever Satisfied
TTITLE6=Nowhere Road
TTITLE7=The Rain Came Down
TTITLE8=The Week Of Living Dangerously
TTITLE9=Continental Trailways Blues
TTITLE10=Six Days On The Road
TTITLE11=Copperhead Road
EXTD=
EXTT0=
EXTT1=
EXTT2=
EXTT3=
EXTT4=
EXTT5=
EXTT6=
EXTT7=
EXTT8=
EXTT9=
EXTT10=
EXTT11=
PLAYORDER=
